<?xml version="1.0" encoding="UTF-8"?>
<!DOCTYPE svg PUBLIC "-//W3C//DTD SVG 1.1//EN" "http://www.w3.org/Graphics/SVG/1.1/DTD/svg11.dtd">
<!-- Creator: CorelDRAW 2020 (64 Bit) -->
<svg xmlns="http://www.w3.org/2000/svg" xml:space="preserve" width="135.45mm" height="135.45mm" version="1.1" style="shape-rendering:geometricPrecision; text-rendering:geometricPrecision; image-rendering:optimizeQuality; fill-rule:evenodd; clip-rule:evenodd"
viewBox="0 0 2743.15 2743.15"
 xmlns:xlink="http://www.w3.org/1999/xlink"
 xmlns:xodm="http://www.corel.com/coreldraw/odm/2003">
 <defs>
  <style type="text/css">
   <![CDATA[
    .fil0 {fill:#4B4B4D}
   ]]>
  </style>
 </defs>
 <g id="Camada_x0020_1">
  <metadata id="CorelCorpID_0Corel-Layer"/>
  <g id="_2571384298384">
   <path class="fil0" d="M380.4 1703.75c0,-337.07 106.31,-666.42 292.2,-945.43 15.52,-23.29 32.86,-25.74 71.3,-41.21 80.5,-32.41 168.08,-61.6 255.85,-81.69 32.94,-7.54 62.62,-12.16 93.22,-19.29 7.63,32.76 35.49,52.51 48.22,107.15 36.35,0 66.33,-9.62 101.8,-10.71l139.29 -5.36c74.78,0 188.65,16.07 219.67,16.07 3.29,-14.12 15.3,-39.56 21.5,-53.51 7.25,-16.36 22.64,-38.37 26.72,-53.64 191.13,44.53 180.71,34.15 382.84,115.43 37.24,14.98 48.48,43.17 78.23,93.21 159.36,268.01 251.51,553.39 251.51,873.62l-10.19 161.26c-5.36,26.12 -14.79,26.21 -60.46,57.41 -107.5,73.45 -229.1,131.28 -351.04,179.37 -28.5,11.24 -62.49,18.67 -87.3,30.57 -50.81,-75.87 -57.31,-77.24 -107.15,-171.45 26.14,-13.83 58.86,-24.16 85.8,-37.43 28.55,-14.05 52.78,-28.39 80.29,-42.94 -45.35,-67.72 -46.64,-16.22 -220.73,31.09 -256.13,69.59 -515.24,58.58 -760.57,-40.97 -52.3,-21.22 -54.62,-34.27 -80.46,-12.91 -9.73,8.04 -14.15,13.31 -20.5,22.8 45.69,24.18 105.62,62.17 160.73,75.01 -3.32,39.87 -80.08,144.38 -101.8,176.81l-167.57 -62.81c-58.49,-25.07 -104.25,-48.32 -157.59,-78.15 -51.15,-28.6 -95.86,-55.56 -141.81,-88.57 -12.53,-9 -24.91,-15.33 -30.07,-28.86 -7.19,-18.83 -11.93,-146.37 -11.93,-164.88zm-380.4 -380.4c0,206.84 11.36,318.97 78.29,511.06 31.93,91.62 61.06,144.05 105.69,226.49 10.35,19.12 19.88,31.87 30.58,49.79 43.98,73.65 127.25,173.29 185.93,231.97 55.59,55.59 113.97,103.47 178.11,148.71 80.51,56.79 119.31,79.14 208.91,123.27 126.9,62.51 347.11,128.51 535.85,128.51l7.26 0c151.24,-0.03 223.64,-1.39 376.42,-39.58 46.12,-11.53 84.31,-23.7 127.38,-38.71 175.76,-61.25 283.59,-137.1 421.2,-243.16 274.78,-211.79 487.54,-641.15 487.54,-1001.9 0,-247.38 -29.19,-425.56 -126.73,-628.71 -148.37,-309.01 -357.97,-509.6 -660.83,-662.52 -144.85,-73.14 -371.48,-128.57 -535.79,-128.57 -206.5,0 -319.19,11.43 -511.06,78.29 -38.24,13.33 -82.98,31 -117.62,48.47 -70.71,35.65 -145.88,75.39 -210.23,121.95 -267.62,193.61 -458.44,461.05 -540.25,783.11 -21.04,82.85 -40.64,191.85 -40.64,291.54z"/>
   <path class="fil0" d="M1521.59 1446.58c0,106.24 77.81,199.86 177.21,202.7 96.95,2.77 181.76,-89.25 181.76,-197.34 0,-272.45 -358.97,-270.41 -358.97,-5.36z"/>
   <path class="fil0" d="M862.59 1446.58c0,134.64 125.93,241.75 246.57,187.64 19.97,-8.96 41.29,-23.95 56.35,-40.09 118.34,-126.9 40.36,-354.79 -129.32,-347.5 -100.97,4.34 -173.6,96.37 -173.6,199.95z"/>
  </g>
 </g>
</svg>
