<?xml version="1.0" encoding="UTF-8"?>
<!DOCTYPE svg PUBLIC "-//W3C//DTD SVG 1.1//EN" "http://www.w3.org/Graphics/SVG/1.1/DTD/svg11.dtd">
<!-- Creator: CorelDRAW 2020 (64 Bit) -->
<svg xmlns="http://www.w3.org/2000/svg" xml:space="preserve" width="135.45mm" height="135.45mm" version="1.1" style="shape-rendering:geometricPrecision; text-rendering:geometricPrecision; image-rendering:optimizeQuality; fill-rule:evenodd; clip-rule:evenodd"
viewBox="0 0 3524.37 3524.37"
 xmlns:xlink="http://www.w3.org/1999/xlink"
 xmlns:xodm="http://www.corel.com/coreldraw/odm/2003">
 <defs>
  <style type="text/css">
   <![CDATA[
    .fil0 {fill:#4B4B4D}
   ]]>
  </style>
 </defs>
 <g id="Camada_x0020_1">
  <metadata id="CorelCorpID_0Corel-Layer"/>
  <g id="_2571389317040">
   <path class="fil0" d="M619.52 1865.44l22.56 -707.1c14.9,-98.25 54.76,-201.34 113.06,-279.3 23.38,-31.25 38.94,-45.1 65.72,-71.96 47.5,-47.66 87.3,-78.08 153.61,-107.96 151.29,-68.18 275.9,-72.25 450.65,-72.49 45.7,-0.06 71.34,-7.33 123.65,-7.14l792.87 19.42c292.91,41.82 493.07,229.55 539.7,513.47 30.12,183.42 22.42,646.94 23.59,850.81l-23.59 368.77c-46.96,285.88 -248.5,470.7 -545.68,514.38 -133.92,19.68 -596.43,18.29 -766.23,18.5l-380.75 -18.5c-158.94,-23.36 -273.8,-74.51 -364.4,-165.63 -170.58,-171.57 -199.23,-345.25 -197.8,-593.8 0.29,-51.31 -7.36,-72.41 -7.07,-123.72 0.26,-45.91 0.09,-91.85 0.09,-137.76zm1072.51 -1865.44l149.34 0c119.87,5.05 239.57,22.3 357.33,52.21 306.3,77.8 589.88,241.09 811.12,462.33 142.61,142.61 258.98,308.68 351.72,501.84 125.32,261 162.82,489.93 162.82,807.76 0,463.28 -273.31,1015.09 -626.39,1287.23 -176.79,136.26 -315.34,233.72 -541.15,312.41 -55.34,19.28 -104.4,34.93 -163.65,49.74 -196.29,49.06 -289.3,50.81 -483.61,50.85l-9.33 0c-242.5,0 -525.42,-84.79 -688.46,-165.1 -115.12,-56.7 -164.97,-85.42 -268.4,-158.37 -82.4,-58.13 -157.4,-119.64 -228.83,-191.07 -75.39,-75.39 -182.38,-203.41 -238.88,-298.04 -13.74,-23.01 -25.99,-39.4 -39.29,-63.96 -57.34,-105.92 -94.77,-173.28 -135.79,-290.99 -84.43,-242.29 -100.59,-387.64 -100.59,-649.72 0,-133.6 23.22,-265.38 50.85,-375.93 49.81,-199.31 148.57,-418.84 268.68,-584.88 127.97,-176.9 249.88,-298.81 426.78,-426.78 82.68,-59.82 179.26,-110.87 270.1,-156.68 44.51,-22.44 101.98,-45.14 151.12,-62.27 169.65,-59.12 346.43,-93.14 524.49,-100.59z"/>
   <path class="fil0" d="M1177.09 1769.07c0,-466.15 506.25,-759.03 915.54,-488.77 298.87,197.35 338.71,642.75 84.57,896.89 -224.04,224.04 -605.82,224.2 -830.02,0 -15.51,-15.51 -17.02,-22.11 -30.89,-37.94 -84.25,-96.15 -139.2,-233.16 -139.2,-370.18zm1060.06 -612.64c0,-42.22 12.19,-69.96 35.76,-95.02 125.65,-133.63 323.68,64.4 190.05,190.05 -83.94,78.92 -225.81,19.28 -225.81,-95.02zm-1411.13 254.69l0 702.12c0,198.47 26,351.29 125.43,452.79 100.03,102.11 246.93,132.31 445.91,132.31l729.65 0c198.97,0 345.88,-30.2 445.9,-132.31 99.43,-101.5 125.43,-254.32 125.43,-452.79l0 -702.12c0,-198.47 -26,-351.29 -125.43,-452.79 -100.03,-102.11 -246.93,-132.31 -445.9,-132.31l-729.65 0c-198.74,0 -346.34,30.66 -445.91,132.31 -99.43,101.5 -125.43,254.32 -125.43,452.79z"/>
   <path class="fil0" d="M1741.54 1383.59c-42.91,10.33 -62.12,-8 -153.89,38.84 -226.78,115.77 -289.03,423.06 -82.02,623.85 105.81,102.64 285.12,130.18 431.11,55.65 226.78,-115.77 289.03,-423.06 82.02,-623.85 -57.74,-56.01 -186.19,-105.45 -256.61,-100.68 -35.61,2.41 -9.88,3.6 -20.6,6.18z"/>
  </g>
 </g>
</svg>
