<?xml version="1.0" encoding="UTF-8"?>
<!DOCTYPE svg PUBLIC "-//W3C//DTD SVG 1.1//EN" "http://www.w3.org/Graphics/SVG/1.1/DTD/svg11.dtd">
<!-- Creator: CorelDRAW 2020 (64 Bit) -->
<svg xmlns="http://www.w3.org/2000/svg" xml:space="preserve" width="135.45mm" height="135.45mm" version="1.1" style="shape-rendering:geometricPrecision; text-rendering:geometricPrecision; image-rendering:optimizeQuality; fill-rule:evenodd; clip-rule:evenodd"
viewBox="0 0 4653.89 4653.89"
 xmlns:xlink="http://www.w3.org/1999/xlink"
 xmlns:xodm="http://www.corel.com/coreldraw/odm/2003">
 <defs>
  <style type="text/css">
   <![CDATA[
    .fil0 {fill:#FEFEFE}
   ]]>
  </style>
 </defs>
 <g id="Camada_x0020_1">
  <metadata id="CorelCorpID_0Corel-Layer"/>
  <g id="_2571388509840">
   <path class="fil0" d="M3672.21 3435.88l0 0zm-2517.83 -118.16l0 -2008.81c0,-100.89 65.02,-190.88 163.61,-190.88l2090.61 0c65.44,0 145.43,79.99 145.43,145.43l0 2090.61c0,91.29 -82.06,163.61 -172.7,163.61l-2036.08 0c-120.83,0 -190.88,-79.4 -190.88,-199.97zm-1154.38 -1072.58c0,350.92 19.27,541.15 132.83,867.03 54.17,155.44 103.59,244.38 179.31,384.25 17.55,32.43 33.73,54.08 51.88,84.46 74.61,124.95 215.89,294 315.44,393.55 94.32,94.32 193.35,175.55 302.17,252.3 136.58,96.34 202.41,134.26 354.43,209.13 215.29,106.05 588.88,218.02 909.1,218.02l12.32 0c256.58,-0.06 379.41,-2.36 638.61,-67.15 78.24,-19.55 143.03,-40.21 216.1,-65.68 298.18,-103.91 481.13,-232.6 714.58,-412.53 466.24,-359.36 827.14,-1088.02 827.14,-1699.78 0,-419.69 -49.52,-721.99 -215,-1066.64 -251.72,-524.26 -607.32,-864.56 -1121.14,-1124 -245.74,-124.08 -630.24,-218.12 -909,-218.12 -350.33,0 -541.52,19.4 -867.03,132.83 -64.88,22.61 -140.78,52.59 -199.55,82.22 -119.96,60.49 -247.49,127.9 -356.67,206.89 -237.4,171.75 -459.08,391.06 -614.6,639.76 -217.76,348.21 -370.9,763.32 -370.9,1183.43z"/>
   <path class="fil0" d="M2436.02 2163.33l0 -154.52 -345.41 0 0 1154.38 363.59 0 0 -636.27c0,-62.49 26.94,-129.87 54.24,-163.91 51.17,-63.79 336.61,-160.39 336.61,191.18l0 609 363.59 0 0 -627.18c0,-341.75 -93.46,-554.47 -436.3,-554.47 -113.18,0 -201.2,42.2 -271.81,109.96 -1.35,1.3 -3.3,3.15 -4.62,4.47 -1.32,1.32 -3.21,3.23 -4.51,4.58l-55.38 62.79z"/>
   <path class="fil0" d="M1508.88 3163.19l363.59 0 0 -1127.11c0,-20.95 -6.33,-27.27 -27.27,-27.27l-336.32 0 0 1154.38z"/>
   <path class="fil0" d="M1481.61 1636.13c0,221.23 232.68,286.96 355.11,164.22 120.38,-120.69 68.53,-355.11 -164.22,-355.11 -97.85,0 -190.88,93.03 -190.88,190.88z"/>
   <path class="fil0" d="M3835.82 3381.34c11.18,21.13 30.46,50.62 36.36,72.72 -27.71,-10.03 -46.3,-41.88 -54.54,-72.72l-36.36 0 0 72.72 -27.27 0 0 -163.61c72.63,0 57.62,-5.01 118.16,9.09 6.26,26.16 31.25,66.05 -36.36,81.8zm-163.61 54.54l0 0z"/>
   <path class="fil0" d="M3781.29 3372.25c115.7,-9.63 110.24,-72.72 0,-72.72l0 72.72z"/>
  </g>
 </g>
</svg>
