<?xml version="1.0" encoding="UTF-8"?>
<!DOCTYPE svg PUBLIC "-//W3C//DTD SVG 1.1//EN" "http://www.w3.org/Graphics/SVG/1.1/DTD/svg11.dtd">
<!-- Creator: CorelDRAW 2020 (64 Bit) -->
<svg xmlns="http://www.w3.org/2000/svg" xml:space="preserve" width="135.45mm" height="135.45mm" version="1.1" style="shape-rendering:geometricPrecision; text-rendering:geometricPrecision; image-rendering:optimizeQuality; fill-rule:evenodd; clip-rule:evenodd"
viewBox="0 0 7651.03 7651.03"
 xmlns:xlink="http://www.w3.org/1999/xlink"
 xmlns:xodm="http://www.corel.com/coreldraw/odm/2003">
 <defs>
  <style type="text/css">
   <![CDATA[
    .fil0 {fill:#4B4B4D}
   ]]>
  </style>
 </defs>
 <g id="Camada_x0020_1">
  <metadata id="CorelCorpID_0Corel-Layer"/>
  <g id="_2571388527792">
   <path class="fil0" d="M6037.14 5648.61l0 0zm-4139.33 -194.26l0 -3302.5c0,-165.86 106.9,-313.81 268.98,-313.81l3436.99 0c107.58,0 239.09,131.51 239.09,239.09l0 3436.99c0,150.09 -134.91,268.98 -283.93,268.98l-3347.33 0c-198.65,0 -313.81,-130.54 -313.81,-328.76zm-1897.82 -1763.32c0,576.91 31.68,889.66 218.37,1425.41 89.05,255.55 170.31,401.76 294.78,631.71 28.86,53.32 55.46,88.9 85.29,138.86 122.67,205.41 354.93,483.34 518.58,647 155.06,155.06 317.87,288.6 496.76,414.78 224.54,158.39 332.77,220.72 582.68,343.81 353.94,174.34 968.13,358.42 1494.57,358.42l20.26 0c421.83,-0.1 623.76,-3.89 1049.87,-110.4 128.62,-32.15 235.15,-66.11 355.28,-107.97 490.21,-170.83 790.98,-382.39 1174.78,-678.2 766.5,-590.79 1359.82,-1788.72 1359.82,-2794.45 0,-689.98 -81.42,-1186.96 -353.47,-1753.56 -413.82,-861.88 -998.44,-1421.35 -1843.16,-1847.87 -403.99,-203.99 -1036.11,-358.59 -1494.4,-358.59 -575.94,0 -890.26,31.89 -1425.41,218.37 -106.67,37.17 -231.44,86.46 -328.07,135.18 -197.21,99.44 -406.87,210.28 -586.36,340.13 -390.29,282.35 -754.73,642.9 -1010.41,1051.78 -357.99,572.46 -609.76,1254.91 -609.76,1945.57z"/>
   <path class="fil0" d="M4004.84 3556.53l0 -254.04 -567.85 0 0 1897.81 597.74 0 0 -1046.04c0,-102.74 44.29,-213.51 89.17,-269.47 84.12,-104.87 553.4,-263.68 553.4,314.3l0 1001.21 597.74 0 0 -1031.09c0,-561.85 -153.65,-911.55 -717.28,-911.55 -186.07,0 -330.77,69.38 -446.86,180.77 -2.22,2.13 -5.42,5.19 -7.6,7.35 -2.17,2.17 -5.28,5.32 -7.41,7.53l-91.04 103.22z"/>
   <path class="fil0" d="M2480.61 5200.31l597.74 0 0 -1852.98c0,-34.43 -10.4,-44.83 -44.83,-44.83l-552.91 0 0 1897.81z"/>
   <path class="fil0" d="M2435.78 2689.82c0,363.7 382.53,471.77 583.8,269.99 197.9,-198.41 112.66,-583.8 -269.99,-583.8 -160.87,0 -313.81,152.94 -313.81,313.81z"/>
   <path class="fil0" d="M6306.12 5558.95c18.38,34.74 50.08,83.23 59.77,119.55 -45.56,-16.49 -76.12,-68.85 -89.66,-119.55l-59.77 0 0 119.55 -44.83 0 0 -268.98c119.4,0 94.73,-8.24 194.26,14.95 10.3,43.01 51.37,108.59 -59.77,134.49zm-268.98 89.66l0 0z"/>
   <path class="fil0" d="M6216.46 5544.01c190.21,-15.83 181.24,-119.55 0,-119.55l0 119.55z"/>
  </g>
 </g>
</svg>
