<?xml version="1.0" encoding="UTF-8"?>
<!DOCTYPE svg PUBLIC "-//W3C//DTD SVG 1.1//EN" "http://www.w3.org/Graphics/SVG/1.1/DTD/svg11.dtd">
<!-- Creator: CorelDRAW 2020 (64 Bit) -->
<svg xmlns="http://www.w3.org/2000/svg" xml:space="preserve" width="135.45mm" height="135.45mm" version="1.1" style="shape-rendering:geometricPrecision; text-rendering:geometricPrecision; image-rendering:optimizeQuality; fill-rule:evenodd; clip-rule:evenodd"
viewBox="0 0 2454.76 2454.76"
 xmlns:xlink="http://www.w3.org/1999/xlink"
 xmlns:xodm="http://www.corel.com/coreldraw/odm/2003">
 <defs>
  <style type="text/css">
   <![CDATA[
    .fil0 {fill:#4B4B4D}
   ]]>
  </style>
 </defs>
 <g id="Camada_x0020_1">
  <metadata id="CorelCorpID_0Corel-Layer"/>
  <g id="_2571386420848">
   <path class="fil0" d="M297.26 1227.38c0,-176.62 62.74,-387.8 166.4,-528.8l167.12 -182.88 65.1 -49.97c123.67,-90.95 314.53,-159.79 474.07,-163.6 24.49,-0.58 29.88,-5.22 57.44,-5.22 26.09,0 31.26,4.08 52.75,5.11 22.98,1.11 36.99,0.95 54.21,3.33 151.24,20.87 299.15,68.08 421.84,158.29 99.63,73.24 159.59,132.6 232.85,232.22 220.94,300.44 223.41,759.25 2.08,1060.31 -166.44,226.4 -415.99,389.52 -706.28,396.44 -24.49,0.58 -29.88,5.22 -57.44,5.22 -44.82,0 -165.73,-16.06 -205.22,-25.24 -164.58,-38.28 -263,-92.24 -388.67,-191.45 -52.7,-41.61 -100.44,-97.15 -143.37,-149.09 -10.28,-12.43 -15.1,-20.53 -24.38,-33.16 -88.88,-120.86 -140.91,-270.4 -159.79,-420.34 -3.72,-29.53 -8.7,-78.03 -8.7,-111.17zm-297.26 -38.36c0,182.54 11.26,283.78 70.06,452.54 28.57,81.99 54.64,128.9 94.58,202.68 9.26,17.11 17.79,28.52 27.36,44.55 39.36,65.9 113.87,155.08 166.38,207.59 49.75,49.75 101.99,92.59 159.38,133.08 72.04,50.82 106.77,70.82 186.95,110.31 113.56,55.94 310.62,115 479.52,115l6.5 0c135.34,-0.03 200.13,-1.25 336.84,-35.42 41.27,-10.31 75.44,-21.21 113.99,-34.64 157.28,-54.81 253.78,-122.69 376.92,-217.59 245.92,-189.55 436.29,-573.89 436.29,-896.57 0,-221.37 -26.12,-380.82 -113.41,-562.61 -132.77,-276.53 -320.34,-456.03 -591.36,-592.87 -129.62,-65.45 -332.43,-115.05 -479.46,-115.05 -184.79,0 -285.63,10.23 -457.33,70.06 -34.22,11.93 -74.26,27.74 -105.26,43.37 -63.27,31.9 -130.54,67.46 -188.13,109.13 -123.21,89.13 -208.12,174.05 -297.26,297.26 -83.66,115.65 -152.45,268.55 -187.14,407.37 -19.25,77 -35.42,168.79 -35.42,261.84z"/>
   <path class="fil0" d="M647.25 1270.53c0,38.29 69.48,49.35 109.68,62.92 150.56,50.83 164.14,43.81 273.88,-29.36 39.59,-26.39 77.01,-51.35 117.94,-78.63 41.08,-27.39 77.36,-51.57 117.94,-78.63 24.82,-16.54 107.97,-77.67 128.5,-77.67 60.53,0 -111.32,142.41 -140.24,171.4 -31.37,31.44 -158.32,138.9 -167.77,172.94 -5.76,20.76 6.01,38.45 21.33,52.61 9.74,8.99 13.45,10.43 24.9,18.25l228.95 154.61c26.02,19.32 79.33,58.26 114.34,58.26 68.69,0 75.57,-90.89 87.53,-152.19 24.96,-127.88 94.66,-531.62 94.66,-643.69 0,-10.55 -6.06,-25.69 -11.32,-31.84 -35.88,-41.95 -194.81,34.7 -240.73,53.07 -217.38,86.94 -430.19,182.29 -645.84,274.7 -28.03,12.01 -113.74,42.08 -113.74,73.25z"/>
  </g>
 </g>
</svg>
