<?xml version="1.0" encoding="UTF-8"?>
<!DOCTYPE svg PUBLIC "-//W3C//DTD SVG 1.1//EN" "http://www.w3.org/Graphics/SVG/1.1/DTD/svg11.dtd">
<!-- Creator: CorelDRAW 2020 (64 Bit) -->
<svg xmlns="http://www.w3.org/2000/svg" xml:space="preserve" width="135.45mm" height="135.45mm" version="1.1" style="shape-rendering:geometricPrecision; text-rendering:geometricPrecision; image-rendering:optimizeQuality; fill-rule:evenodd; clip-rule:evenodd"
viewBox="0 0 5946.4 5946.4"
 xmlns:xlink="http://www.w3.org/1999/xlink"
 xmlns:xodm="http://www.corel.com/coreldraw/odm/2003">
 <defs>
  <style type="text/css">
   <![CDATA[
    .fil0 {fill:#FEFEFE}
   ]]>
  </style>
 </defs>
 <g id="Camada_x0020_1">
  <metadata id="CorelCorpID_0Corel-Layer"/>
  <path class="fil0" d="M4448.19 1904.71c69.8,-5.81 169.59,-29.77 232.42,-46.32 37.87,-9.97 72.47,-22.26 105.95,-33.42 37.32,-12.44 69.01,-28.49 102.97,-36.4 -218.07,325.65 -378.6,332.09 -384.18,440.43 -11.28,219.32 14.29,174.8 -38.8,472.22 -60.99,341.68 -235.17,709.35 -408.25,938.98 -27.01,35.84 -43.44,57.44 -71.01,91.59 -29.99,37.16 -52.4,58.56 -80.05,94.16 -135.95,175.03 -380.82,334.76 -564.61,445.82 -192.29,116.19 -522.71,218.2 -765.22,245.21 -350.58,39.04 -643.49,26.57 -976.17,-78.89 -135.39,-42.92 -430.64,-156.64 -532.75,-245.39 70.52,0 93.05,11.61 150.99,11.61 268.4,0 592.03,-85.42 799.27,-211.15 37.67,-22.86 62.21,-37.97 99.7,-62.9l99.84 -74.37c-163.91,0 -349.93,-72.07 -471.47,-167.3 -96.21,-75.39 -250.08,-256.81 -260.22,-378.56 107.46,25.03 233.3,12.5 336.81,-11.62 -45.39,-39.45 -260.02,-53.02 -431.55,-265.29 -54.56,-67.51 -95.14,-128.17 -131.05,-217.38 -68.05,-169.1 -42.15,-248.77 -64.56,-295.47 60.05,5 179.65,88.89 360.03,92.91 -24.08,-35.96 -27.4,-30.89 -59.75,-56.4 -25.86,-20.39 -41.18,-38.82 -65.14,-62.62 -138.85,-138.01 -223.54,-332.57 -223.54,-554.6 0,-121.63 51.14,-335.64 116.14,-383.27 11,41.21 170.64,202.28 215.77,237.19 91.14,70.49 101.64,98.42 253.45,199.5 163.34,108.74 218.43,139.1 398.57,216.97 201.77,87.21 531.99,170.95 758.18,170.95 -65.47,-281.04 11.29,-539.74 211.95,-740.41 229.95,-229.96 588.36,-306.97 883.74,-157.84 95.5,48.21 184.47,95.36 239.93,178.18 221.67,-51.65 300.24,-80.44 499.4,-185.83 -59.24,254.27 -315.68,400.88 -336.81,429.72zm-4448.19 975.58c0,442.19 27.27,687.43 169.72,1096.22 69.21,198.61 132.36,312.25 229.1,490.97 22.43,41.44 43.1,69.1 66.29,107.92 95.34,159.65 275.85,375.65 403.04,502.85 120.51,120.51 247.05,224.3 386.08,322.37 174.52,123.1 258.63,171.54 452.86,267.21 275.08,135.5 752.43,278.57 1161.58,278.57l15.74 0c327.85,-0.07 484.79,-3.02 815.97,-85.8 99.97,-24.98 182.76,-51.38 276.12,-83.92 380.99,-132.77 614.75,-297.19 913.04,-527.1 595.65,-459.11 1056.86,-1389.83 1056.86,-2171.86 0,-536.25 -63.28,-922.51 -274.72,-1362.87 -321.62,-669.86 -775.99,-1104.68 -1432.51,-1436.17 -313.99,-158.54 -805.27,-278.69 -1161.45,-278.69 -447.63,0 -691.91,24.78 -1107.83,169.72 -82.9,28.89 -179.88,67.2 -254.97,105.06 -153.27,77.28 -316.22,163.43 -455.72,264.35 -298.46,215.92 -504.15,421.61 -720.07,720.07 -202.67,280.14 -369.28,650.54 -453.33,986.82 -46.62,186.52 -85.8,408.87 -85.8,634.27z"/>
 </g>
</svg>
